<?xml version="1.0" encoding="UTF-8"?>
<svg width="800px" height="800px" viewBox="0 0 800 800" version="1.1" xmlns="http://www.w3.org/2000/svg" xmlns:xlink="http://www.w3.org/1999/xlink">
    <title>Alpaca Lotto</title>
    <g id="Alpaca-Logo" stroke="none" stroke-width="1" fill="none" fill-rule="evenodd">
        <circle id="Background" fill="#4F46E5" cx="400" cy="400" r="400"></circle>
        <g id="Alpaca" transform="translate(150.000, 100.000)" fill="#FFFFFF">
            <path d="M250,100 C388.071,100 500,211.929 500,350 C500,488.071 388.071,600 250,600 C111.929,600 0,488.071 0,350 C0,211.929 111.929,100 250,100 Z" id="Body" fill-opacity="0.2"></path>
            <ellipse id="Head" cx="250" cy="200" rx="150" ry="125"></ellipse>
            <path d="M175,175 C189.912,175 202,187.088 202,202 C202,216.912 189.912,229 175,229 C160.088,229 148,216.912 148,202 C148,187.088 160.088,175 175,175 Z" id="Left-Eye"></path>
            <path d="M325,175 C339.912,175 352,187.088 352,202 C352,216.912 339.912,229 325,229 C310.088,229 298,216.912 298,202 C298,187.088 310.088,175 325,175 Z" id="Right-Eye"></path>
            <path d="M250,250 C272.091,250 290,267.909 290,290 C290,312.091 272.091,330 250,330 C227.909,330 210,312.091 210,290 C210,267.909 227.909,250 250,250 Z" id="Nose"></path>
            <path d="M100,150 C122.091,150 140,132.091 140,110 C140,87.909 122.091,70 100,70 C77.909,70 60,87.909 60,110 C60,132.091 77.909,150 100,150 Z" id="Left-Ear" transform="translate(100.000, 110.000) rotate(-15.000000) translate(-100.000, -110.000) "></path>
            <path d="M400,150 C422.091,150 440,132.091 440,110 C440,87.909 422.091,70 400,70 C377.909,70 360,87.909 360,110 C360,132.091 377.909,150 400,150 Z" id="Right-Ear" transform="translate(400.000, 110.000) rotate(15.000000) translate(-400.000, -110.000) "></path>
            <path d="M200,350 C222.091,350 240,367.909 240,390 L240,550 C240,572.091 222.091,590 200,590 C177.909,590 160,572.091 160,550 L160,390 C160,367.909 177.909,350 200,350 Z" id="Left-Leg"></path>
            <path d="M300,350 C322.091,350 340,367.909 340,390 L340,550 C340,572.091 322.091,590 300,590 C277.909,590 260,572.091 260,550 L260,390 C260,367.909 277.909,350 300,350 Z" id="Right-Leg"></path>
        </g>
        <g id="Lotto-Ticket" transform="translate(225.000, 400.000)" fill="#FFDB58">
            <rect id="Ticket" x="0" y="0" width="350" height="200" rx="20"></rect>
            <circle id="Circle-1" cx="75" cy="75" r="25"></circle>
            <circle id="Circle-2" cx="175" cy="75" r="25"></circle>
            <circle id="Circle-3" cx="275" cy="75" r="25"></circle>
            <rect id="Rectangle" x="50" y="150" width="250" height="25" rx="10"></rect>
        </g>
    </g>
</svg>